<?xml version="1.0" encoding="utf-8"?>
<!-- Generator: Adobe Illustrator 21.1.0, SVG Export Plug-In . SVG Version: 6.00 Build 0)  -->
<svg version="1.1" id="Layer_1" xmlns="http://www.w3.org/2000/svg" xmlns:xlink="http://www.w3.org/1999/xlink" x="0px" y="0px"
	 viewBox="0 0 577.6 145.6" style="enable-background:new 0 0 577.6 145.6;" xml:space="preserve">
<style type="text/css">
	.st0{fill:#3E96EE;}
</style>
<title>sked-logo</title>
<path class="st0" d="M226.8,19.4v98.7l0.4,0.1c1.1,0.2,2.2,0.3,3.3,0.4c1.2,0.1,2.3,0.1,3.3,0.1c1,0,2.1,0,3.4-0.1
	c1.1-0.1,2.3-0.2,3.4-0.4l0.4-0.1V19.4l-0.4-0.1c-1.1-0.2-2.3-0.3-3.4-0.4c-1.3-0.1-2.4-0.1-3.4-0.1c-1,0-2.1,0-3.3,0.1
	c-1.1,0.1-2.2,0.2-3.3,0.4L226.8,19.4z"/>
<rect x="226.4" y="18.4" class="st0" width="15" height="100.7"/>
<path class="st0" d="M239.8,82.2l0.2,0.3l25.4,35.5l0.1,0.2h0.2c1.3,0.2,2.5,0.3,3.8,0.4c1.3,0.1,2.5,0.1,3.8,0.1s2.5,0,3.6-0.1
	s2.4-0.2,3.6-0.4l0.8-0.1l-0.5-0.7L255.8,82l21.4-32.4l0.5-0.7l-0.8-0.1c-1.3-0.2-2.5-0.3-3.7-0.4c-1.2-0.1-2.5-0.1-3.8-0.1
	c-1.3,0-2.5,0-3.6,0.1c-1.2,0.1-2.3,0.2-3.5,0.4h-0.2l-0.1,0.2L240,82L239.8,82.2L239.8,82.2z"/>
<path class="st0" d="M170.8,104.6l-0.2,0.5c-0.7,1.8-1.4,3.6-1.9,5.4c-0.6,1.8-1,3.6-1.2,5.5v0.4l0.4,0.1c2.9,1,5.9,1.8,9,2.4
	c3.7,0.6,7.5,0.9,11.3,0.9c3.9,0,7.9-0.5,11.6-1.6c3.3-1,6.3-2.5,9-4.6c2.5-1.9,4.4-4.3,5.8-7.1c2.5-5.4,2.7-11.5,0.8-17
	c-0.8-2-1.9-3.9-3.4-5.5c-1.5-1.5-3.2-2.8-5.1-3.8c-2-1-4-1.9-6.1-2.6l-5.9-2c-1.6-0.5-3.1-1.1-4.4-1.6c-1.3-0.5-2.5-1.1-3.6-1.9
	c-1-0.7-1.8-1.6-2.4-2.6c-0.6-1.1-0.9-2.4-0.9-3.6c-0.2-2.5,1.2-4.7,3.5-5.7c2.7-1.2,5.6-1.7,8.5-1.7c2.9,0,5.8,0.3,8.6,1
	c2.4,0.6,4.7,1.2,7,2l0.4,0.2l0.2-0.4c0.8-1.6,1.4-3.3,1.8-5c0.5-1.8,0.8-3.6,1-5.4v-0.4l-0.4-0.1c-2.9-1-5.8-1.8-8.8-2.4
	c-3.4-0.7-6.8-1-10.3-1c-8.5,0-14.9,1.8-19.4,5.5c-4.4,3.7-6.7,8.6-6.7,14.8c0,4.7,1.3,8.4,4,11.2s6.8,5.2,12.6,7.3l4.7,1.7
	c1.7,0.5,3.3,1.1,4.7,1.7c1.3,0.5,2.6,1.2,3.8,2c1,0.7,1.9,1.7,2.5,2.8c0.7,1.3,1,2.7,0.9,4.2c0,1.4-0.4,2.9-1.2,4.1
	c-0.8,1.3-1.9,2.3-3.2,3.1c-1.4,0.9-3,1.6-4.7,1.9c-1.9,0.4-3.8,0.7-5.8,0.7c-5.6,0-11.2-1.1-16.4-3.2L170.8,104.6L170.8,104.6z"/>
<path class="st0" d="M417.9,48.7l-0.4,0.1v38.5c0,6.9,0.9,12.5,2.6,16.7c1.4,3.9,3.9,7.4,7.1,10c3.1,2.4,6.6,4,10.4,4.7
	c4.1,0.8,8.3,1.1,12.5,1.1c4.5,0,9.1-0.4,13.5-1.2c4.3-0.8,8.1-1.7,11.2-2.6l0.4-0.1V48.8l-0.4-0.1c-1.1-0.2-2.2-0.3-3.3-0.4
	c-1.2-0.1-2.3-0.1-3.3-0.1c-1,0-2.1,0-3.3,0.1c-1.1,0.1-2.2,0.2-3.3,0.4l-0.4,0.1v58l0.4-0.5c-3.7,1-7.6,1.5-11.5,1.4
	c-2.7,0-5.3-0.3-7.9-0.9c-2.1-0.5-4.1-1.7-5.6-3.2c-1.7-1.8-2.9-4-3.5-6.4c-0.9-3.4-1.3-6.9-1.2-10.5v-38l-0.4-0.1
	c-1.1-0.2-2.3-0.3-3.4-0.4c-1.3-0.1-2.4-0.1-3.4-0.1c-1,0-2.1,0-3.2,0.1C420.1,48.4,419,48.5,417.9,48.7L417.9,48.7z"/>
<path class="st0" d="M485.5,19.3l-0.4,0.1V100c-0.1,3.1,0.4,6.2,1.5,9.1c0.9,2.3,2.3,4.3,4.1,5.9c1.8,1.5,3.8,2.6,6.1,3.2
	c2.4,0.7,4.9,1,7.3,1c1.5,0,3.2-0.1,5-0.2c1.6-0.1,3.2-0.4,4.7-0.9l0.3-0.1v-0.4c0-3.5-0.4-7-1.2-10.3l-0.1-0.5l-0.5,0.1
	c-0.8,0.2-1.7,0.3-2.5,0.4c-1,0.1-1.9,0.1-2.7,0.1c-1.1,0-2.1-0.1-3.2-0.3c-0.9-0.2-1.8-0.7-2.4-1.3c-0.8-0.9-1.4-1.9-1.7-3.1
	c-0.5-1.9-0.7-3.8-0.6-5.7V19.4l-0.4-0.1c-1.1-0.2-2.2-0.3-3.3-0.4c-1.2-0.1-2.3-0.1-3.3-0.1s-2.1,0-3.3,0.1
	C487.8,19,486.7,19.1,485.5,19.3L485.5,19.3z"/>
<path class="st0" d="M545.2,119.8c4.9,0.1,9.8-0.9,14.2-2.8c3.9-1.8,7.4-4.4,10.2-7.7c2.8-3.4,4.8-7.3,6-11.5
	c2.6-9.4,2.6-19.2,0-28.6c-1.2-4.2-3.2-8.1-6-11.5c-2.8-3.3-6.3-5.9-10.2-7.7c-9.1-3.8-19.4-3.8-28.5,0c-3.9,1.8-7.4,4.4-10.2,7.8
	c-2.8,3.4-4.8,7.3-6,11.5c-2.6,9.4-2.6,19.2,0,28.6c1.2,4.2,3.2,8.1,6,11.5c2.8,3.3,6.3,5.9,10.2,7.7
	C535.4,119,540.3,120,545.2,119.8L545.2,119.8z M545.2,108.3c-6,0-10.3-2.2-13.1-6.4s-4.2-10.5-4.2-18.3s1.4-13.9,4.2-18.2
	s7.1-6.4,13.1-6.4s10.3,2.1,13.2,6.4s4.3,10.4,4.3,18.2s-1.5,13.9-4.3,18.3S551.1,108.3,545.2,108.3L545.2,108.3z"/>
<path class="st0" d="M407.5,19.3c-1.1-0.2-2.2-0.3-3.3-0.4c-1.2-0.1-2.3-0.1-3.3-0.1c-1,0-2.1,0-3.2,0.1c-1.1,0.1-2.3,0.2-3.4,0.4
	l-0.4,0.1h0V49c-1.8-0.5-3.7-0.9-5.6-1.2c-2.3-0.4-4.7-0.5-7.1-0.5c-4.9-0.1-9.8,0.9-14.3,2.7c-4.2,1.7-8,4.4-11,7.7
	c-3.1,3.4-5.6,7.5-7.1,11.9c-1.7,4.9-2.6,10.1-2.5,15.3c0,6.5,0.9,11.9,2.8,16.4c3.4,8.3,10.5,14.6,19.2,16.9
	c4.5,1.2,9.1,1.8,13.8,1.8c4.7,0,9.4-0.3,14.1-1c3.8-0.6,7.7-1.4,11.4-2.5l0.4-0.1V19.4L407.5,19.3z M394.4,60.8V107
	c-1.7,0.5-3.4,0.8-5.2,1c-2.1,0.2-4.3,0.3-6.4,0.3c-6.8,0-12.1-1.8-16-5.5s-5.9-9.7-6-18.2c0-3.5,0.4-7,1.3-10.3
	c0.8-3,2.1-5.7,3.9-8.2c1.7-2.3,4-4.2,6.6-5.5c3-1.4,6.2-2.1,9.5-2c2.2,0,4.5,0.2,6.7,0.5C390.7,59.5,392.6,60.1,394.4,60.8
	L394.4,60.8z"/>
<path class="st0" d="M338.6,66.5c-1.2-3.7-3-7.2-5.6-10.2c-2.5-2.9-5.6-5.2-9-6.7c-4-1.7-8.3-2.5-12.6-2.5c-5-0.1-10,0.9-14.6,2.9
	c-4,1.8-7.5,4.5-10.2,7.9c-2.8,3.4-4.8,7.4-6,11.7c-1.3,4.7-2,9.5-2,14.4c-0.1,4.9,0.6,9.7,2,14.4c2.6,8.7,9.1,15.8,17.7,18.9
	c5.2,1.9,10.7,2.8,16.2,2.6c3.9,0,7.9-0.3,11.8-0.9c3.4-0.6,6.7-1.5,9.8-2.9l0.3-0.1v-0.4c-0.1-1.9-0.4-3.9-0.8-5.8
	c-0.4-1.7-1-3.4-1.8-5l-0.2-0.4l-0.4,0.2c-5.7,2.2-11.7,3.3-17.8,3.3c-7.1,0-12.4-1.7-16-5.1c-3.6-3.4-5.5-8.2-5.7-15.5l46,0h0.5
	v-0.5c0.1-1,0.2-2.2,0.3-3.5s0.1-2.7,0.1-4C340.5,74.9,339.9,70.6,338.6,66.5z M292.7,77.3h-0.1l0.1-0.6c0.6-5.9,2.4-10.6,5.4-14
	s7.3-5.1,12.9-5.1c2.6-0.1,5.1,0.5,7.4,1.6c2,1,3.7,2.4,5.1,4.2c1.4,1.8,2.4,3.9,3,6.1l0,0c0.7,2.4,1,4.8,1,7.3v0.5H292.7z"/>
<path class="st0" d="M145.6,14.5C145.6,6.5,139,0,131,0H14.6C6.5,0,0,6.5,0,14.6V131c0,0,0,0,0,0c0,8,6.5,14.6,14.6,14.6H131
	c0,0,0.1,0,0.1,0c8,0,14.5-6.6,14.5-14.6L145.6,14.5C145.6,14.5,145.6,14.5,145.6,14.5z M44.6,25.5h56.2c0,0,19.2,0,19.2,19.1H25.4
	C25.4,44.6,25.4,25.5,44.6,25.5z M101,63.2c19.1,0,19.1,19.1,19.1,19.1H44.7c0,0-19.2,0-19.2-19.1H101z M100.9,120.1H44.7
	c0,0-19.2,0-19.2-19.1h94.7C120.2,101,120.2,120.1,100.9,120.1z"/>
</svg>
